<?xml version="1.0" standalone="no"?><!DOCTYPE svg PUBLIC "-//W3C//DTD SVG 1.1//EN" "http://www.w3.org/Graphics/SVG/1.1/DTD/svg11.dtd"><svg t="1759934132514" class="icon" viewBox="0 0 1024 1024" version="1.1" xmlns="http://www.w3.org/2000/svg" p-id="3773" xmlns:xlink="http://www.w3.org/1999/xlink" width="256" height="256"><path d="M0 85.333333a42.666667 42.666667 0 0 1 42.666667-42.666666h938.666666a42.666667 42.666667 0 1 1 0 85.333333H42.666667a42.666667 42.666667 0 0 1-42.666667-42.666667zM0 512a42.666667 42.666667 0 0 1 42.666667-42.666667h938.666666a42.666667 42.666667 0 1 1 0 85.333334H42.666667a42.666667 42.666667 0 0 1-42.666667-42.666667zM0 938.666667a42.666667 42.666667 0 0 1 42.666667-42.666667h938.666666a42.666667 42.666667 0 1 1 0 85.333333H42.666667a42.666667 42.666667 0 0 1-42.666667-42.666666z" p-id="3774"></path></svg>