<?xml version="1.0" standalone="no"?><!DOCTYPE svg PUBLIC "-//W3C//DTD SVG 1.1//EN" "http://www.w3.org/Graphics/SVG/1.1/DTD/svg11.dtd"><svg t="1760352859241" class="icon" viewBox="0 0 1024 1024" version="1.1" xmlns="http://www.w3.org/2000/svg" p-id="3274" xmlns:xlink="http://www.w3.org/1999/xlink" width="256" height="256"><path d="M469.333333 810.666667a341.333333 341.333333 0 1 1 0-682.666667 341.333333 341.333333 0 0 1 0 682.666667zM42.666667 469.333333c0 235.648 191.018667 426.666667 426.666666 426.666667s426.666667-191.018667 426.666667-426.666667S704.981333 42.666667 469.333333 42.666667 42.666667 233.685333 42.666667 469.333333z" p-id="3275"></path><path d="M716.501333 716.501333a42.666667 42.666667 0 0 0 0 60.330667l192 192a42.666667 42.666667 0 0 0 60.330667-60.330667l-192-192a42.666667 42.666667 0 0 0-60.330667 0z" p-id="3276"></path></svg>